<?xml version="1.0" encoding="utf-8"?>
<!-- Generator: Adobe Illustrator 25.2.3, SVG Export Plug-In . SVG Version: 6.00 Build 0)  -->
<svg version="1.1" id="Layer_1" xmlns="http://www.w3.org/2000/svg" xmlns:xlink="http://www.w3.org/1999/xlink" x="0px" y="0px"
	 viewBox="0 0 100 75.7" style="enable-background:new 0 0 100 75.7;" xml:space="preserve">
<style type="text/css">
	.st0{fill:#FFFFFF;}
</style>
<g>
	<path class="st0" d="M50.1,39.9c-1.7,0-42.3,0.1-42.3,10.8c0,8.4,24.7,10.2,35.3,10.7l-3.5,3.4c-0.9,0.9-0.9,2.4,0,3.3v0
		c0.9,0.9,2.4,0.9,3.3,0l6.6-6.6c0.9-0.9,1-2.5,0.2-3.4c-1.7-2-4.4-5.2-6.1-7.2c-0.8-1-2.3-1.1-3.3-0.3c-1,0.8-1.1,2.3-0.3,3.3
		l2.3,2.8c-14.9-0.6-24.1-2.8-28-4.7c-1.2-0.6-1.2-2.1,0-2.6c4.6-2.2,17-4.8,35.7-4.8c18.7,0,31,2.6,35.7,4.8c1.2,0.6,1.2,2.1,0,2.6
		c-4,1.9-13.9,4.2-29.9,4.7c-1.3,0-2.3,1.1-2.3,2.4c0,1.3,1.1,2.3,2.4,2.3c9.7-0.3,36.5-2,36.5-10.7C92.4,40,51.8,39.9,50.1,39.9z"
		/>
	<g>
		<path class="st0" d="M14.2,36v-4.6h0.5c2.5,1.4,4.8,2.1,7,2.1c1.7,0,3-0.4,4-1.1c1-0.7,1.4-1.7,1.4-3.1c0-1.1-0.4-1.9-1.1-2.5
			c-0.8-0.6-2.3-0.9-4.7-0.9h-1.4v-3.7h1.3c3.6,0,5.4-1.1,5.4-3.3c0-0.9-0.4-1.6-1.2-2.1c-0.8-0.5-1.9-0.7-3.3-0.7
			c-1.9,0-4.2,0.7-6.8,2.1h-0.5v-4.6c2.7-1,5.4-1.5,7.9-1.5c3,0,5.3,0.6,6.8,1.7c1.5,1.1,2.3,2.6,2.3,4.4c0,1.4-0.4,2.6-1.3,3.6
			c-0.9,1-2,1.7-3.4,2V24c1.6,0.3,2.9,0.9,3.9,1.9s1.4,2.2,1.4,3.8c0,2.4-0.9,4.3-2.7,5.7s-4.3,2.1-7.4,2.1
			C19.5,37.5,16.7,37,14.2,36z"/>
		<path class="st0" d="M53.5,12.5v4.2H53c-1-0.5-2.3-0.7-3.7-0.7c-4.4,0-6.9,2.3-7.4,6.9c2.1-1.3,4.1-1.9,5.8-1.9
			c2.4,0,4.3,0.7,5.8,2.1c1.5,1.4,2.2,3.3,2.2,5.8c0,2.6-0.9,4.7-2.6,6.3c-1.8,1.6-4,2.4-6.8,2.4c-3.2,0-5.6-1-7.3-2.9
			c-1.7-1.9-2.5-4.8-2.5-8.4c0-4.5,1.1-8,3.3-10.4c2.2-2.4,5.4-3.6,9.7-3.6C51,12.1,52.4,12.2,53.5,12.5z M41.9,25.5l0,0.7
			c0,0.4,0,0.6,0,0.9c0,4.6,1.5,6.8,4.4,6.8c1.2,0,2.1-0.4,2.9-1.3c0.7-0.8,1.1-2,1.1-3.5c0-3-1.6-4.5-4.7-4.5
			C44.5,24.6,43.2,24.9,41.9,25.5z"/>
		<path class="st0" d="M68.3,37.5c-3.3,0-5.7-1-7.3-3c-1.6-2-2.3-5.2-2.3-9.7c0-4.4,0.8-7.6,2.3-9.7s4-3,7.3-3s5.7,1,7.3,3
			c1.6,2,2.3,5.2,2.3,9.6c0,4.5-0.8,7.7-2.3,9.7S71.7,37.5,68.3,37.5z M68.3,15.9c-1.5,0-2.6,0.7-3.2,2.1c-0.7,1.4-1,3.7-1,6.8
			c0,3.1,0.3,5.4,1,6.8c0.7,1.4,1.7,2.1,3.2,2.1c1.5,0,2.6-0.7,3.2-2.2c0.7-1.4,1-3.7,1-6.8c0-3.1-0.3-5.4-1-6.8
			C70.9,16.6,69.9,15.9,68.3,15.9z"/>
	</g>
	<circle class="st0" cx="83.1" cy="12.1" r="5.1"/>
</g>
<text transform="matrix(1 0 0 1 0 115)" style="font-family:'HelveticaNeue-Bold'; font-size:5px;">Created by achmad mulyana</text>
<text transform="matrix(1 0 0 1 0 120)" style="font-family:'HelveticaNeue-Bold'; font-size:5px;">from the Noun Project</text>
</svg>
